<svg width="24" height="25" viewBox="0 0 24 25" fill="none" xmlns="http://www.w3.org/2000/svg">
<path d="M10.9393 13.0607C11.5251 13.6464 12.4749 13.6464 13.0607 13.0607L22.6066 3.51472C23.1924 2.92893 23.1924 1.97919 22.6066 1.3934C22.0208 0.807611 21.0711 0.807611 20.4853 1.3934L12 9.87868L3.51472 1.3934C2.92893 0.807611 1.97919 0.807611 1.3934 1.3934C0.807611 1.97919 0.807611 2.92893 1.3934 3.51472L10.9393 13.0607ZM10.5 11V12H13.5V11H10.5Z" fill="white" fill-opacity="0.5"/>
<path d="M10.9393 24.0607C11.5251 24.6464 12.4749 24.6464 13.0607 24.0607L22.6066 14.5147C23.1924 13.9289 23.1924 12.9792 22.6066 12.3934C22.0208 11.8076 21.0711 11.8076 20.4853 12.3934L12 20.8787L3.51472 12.3934C2.92893 11.8076 1.97919 11.8076 1.3934 12.3934C0.807611 12.9792 0.807611 13.9289 1.3934 14.5147L10.9393 24.0607ZM10.5 22V23H13.5V22H10.5Z" fill="white" fill-opacity="0.5"/>
</svg>
